<svg class="icon" viewBox="0 0 1024 1024" xmlns="http://www.w3.org/2000/svg" width="16" height="16">
    <path d="M529.611 1023.386c-146.113 0-270.826-51.708-374.344-155.226C51.75 764.642.041 639.826.041 493.816c0-105.054 29.694-202.326 88.979-292.226 59.387-89.798 137-155.943 232.839-198.64 6.04-4.608 12.184-3.789 18.225 2.253 7.577 4.607 9.932 11.365 6.86 20.58-24.266 57.954-36.45 116.42-36.45 175.807 0 135.464 48.328 251.474 144.986 348.132 96.658 96.657 212.667 144.986 348.132 144.986 74.54 0 139.252-11.365 194.032-34.199 6.041-4.71 12.082-3.89 18.123 2.15 7.577 4.608 9.932 11.366 6.86 20.581-39.523 103.518-103.825 186.046-192.906 247.686-88.978 61.64-189.015 92.46-300.11 92.46zM296.773 55.476c-79.15 44.132-142.325 105.771-189.425 184.92-47.203 79.15-70.753 163.622-70.753 253.42 0 135.464 48.33 251.474 144.987 348.132 96.658 96.657 212.668 144.986 348.132 144.986 97.374 0 185.636-25.086 264.785-75.36 79.046-50.274 138.33-117.955 177.957-203.248-47.203 15.257-103.519 22.834-168.947 22.834-146.113 0-270.826-51.708-374.344-155.226C325.647 472.416 273.94 347.703 273.94 201.59c0-42.595 7.577-91.334 22.834-146.113z"/>
</svg>