<svg class="icon" viewBox="0 0 1024 1024" xmlns="http://www.w3.org/2000/svg" width="16" height="16">
    <path d="M555.87 65.703c-52.216-4.541-102.729 0-151.539 13.622s-93.648 34.054-134.513 61.297c-86.27 56.756-146.431 137.35-180.485 241.781-15.892 47.675-22.135 97.621-18.73 149.837s14.19 102.16 32.351 149.836c18.162 47.676 44.27 90.81 78.324 129.405 34.054 38.594 73.783 70.378 119.188 95.351 88.54 49.946 187.296 64.702 296.267 44.27 49.946-9.081 96.486-26.675 139.621-52.783 43.135-26.108 81.729-59.594 115.783-100.459 68.108-88.54 102.161-181.62 102.161-279.24 0-124.864-43.135-233.836-129.404-326.916-36.324-36.324-77.756-65.837-124.296-88.54-46.54-22.703-94.783-35.191-144.728-37.461zm34.053 824.099c-43.135 9.081-86.27 10.216-129.405 3.405s-82.864-21.567-119.188-44.27c-77.189-43.135-134.513-105.567-171.972-187.296s-43.135-166.864-17.027-255.403S227.817 246.186 300.465 191.7c34.054-24.973 72.648-42.567 115.783-52.783s86.27-14.189 129.405-11.919c86.27 6.811 162.323 43.135 228.161 108.972 34.054 36.324 60.729 78.324 80.026 125.999 19.297 47.675 28.946 97.621 28.946 149.837 4.541 83.999-21.567 164.593-78.324 241.781-56.756 70.378-128.269 115.783-214.539 136.215zM358.358 321.105l-44.27 44.27L467.33 525.427 314.088 685.48l44.27 44.27L511.6 569.697 664.842 729.75l44.27-44.27L555.87 525.427l153.242-160.053-44.27-44.27L511.6 481.157 358.358 321.105z"
          fill="#6e6e6e"/>
</svg>