<svg class="icon" viewBox="0 0 1024 1024" xmlns="http://www.w3.org/2000/svg" width="16" height="16">
    <path d="M727.163 312.734c4.49 0 8.98-1.714 12.406-5.15l89.856-89.846a17.546 17.546 0 1 0-24.812-24.822l-89.866 89.846a17.546 17.546 0 0 0 12.416 29.972zm-454.203-5.15a17.506 17.506 0 0 0 24.822 0 17.546 17.546 0 0 0 0-24.812l-89.856-89.856a17.546 17.546 0 1 0-24.822 24.822l89.856 89.846zm0 416.985-89.856 89.856a17.546 17.546 0 1 0 24.822 24.812l89.856-89.846a17.546 17.546 0 1 0-24.822-24.822zm466.61 0a17.546 17.546 0 1 0-24.813 24.812l89.846 89.866a17.506 17.506 0 0 0 24.822 0 17.546 17.546 0 0 0 0-24.822l-89.846-89.856zM509.1 250.319c-145.2 0-263.315 118.124-263.315 263.325 0 145.192 118.114 263.316 263.315 263.316 145.192 0 263.316-118.124 263.316-263.316 0-145.2-118.124-263.325-263.316-263.325zm0 491.53c-125.834 0-228.214-102.37-228.214-228.205 0-125.843 102.37-228.224 228.214-228.224S737.314 387.8 737.314 513.644c0 125.834-102.37 228.205-228.214 228.205zm491.53-245.396H816.665a17.556 17.556 0 0 0 0 35.111h183.955a17.556 17.556 0 0 0 0-35.111zm-781.548 17.556c0-9.699-7.867-17.556-17.556-17.556H17.561a17.556 17.556 0 0 0 0 35.111h183.955c9.689 0 17.556-7.867 17.556-17.555zM509.1 804.027c-9.698 0-17.555 7.867-17.555 17.566v183.955a17.556 17.556 0 0 0 35.111 0V821.593c0-9.699-7.867-17.566-17.556-17.566zm0-580.037c9.689 0 17.556-7.867 17.556-17.556V22.48a17.556 17.556 0 0 0-35.111 0v183.955c0 9.69 7.857 17.556 17.555 17.556z"
          fill="#F2F2F2"/>
</svg>