<?xml version="1.0" standalone="no"?><!DOCTYPE svg PUBLIC "-//W3C//DTD SVG 1.1//EN" "http://www.w3.org/Graphics/SVG/1.1/DTD/svg11.dtd"><svg t="1735322146118" class="icon" viewBox="0 0 1024 1024" version="1.1" xmlns="http://www.w3.org/2000/svg" p-id="2476" xmlns:xlink="http://www.w3.org/1999/xlink" width="16" height="16"><path d="M727.163077 312.733538c4.489846 0 8.979692-1.713231 12.406154-5.149538l89.856-89.846154a17.545846 17.545846 0 1 0-24.812308-24.822154l-89.865846 89.846154a17.545846 17.545846 0 0 0 12.416 29.971692z m-454.203077-5.149538a17.506462 17.506462 0 0 0 24.822154 0 17.545846 17.545846 0 0 0 0-24.812308l-89.856-89.856a17.545846 17.545846 0 1 0-24.822154 24.822154l89.856 89.846154z m0 416.984615l-89.856 89.856a17.545846 17.545846 0 1 0 24.822154 24.812308l89.856-89.846154a17.545846 17.545846 0 1 0-24.822154-24.822154z m466.609231 0a17.545846 17.545846 0 1 0-24.812308 24.812308l89.846154 89.865846a17.506462 17.506462 0 0 0 24.822154 0 17.545846 17.545846 0 0 0 0-24.822154l-89.846154-89.856zM509.100308 250.318769c-145.201231 0-263.315692 118.124308-263.315693 263.325539 0 145.191385 118.114462 263.315692 263.315693 263.315692 145.191385 0 263.315692-118.124308 263.315692-263.315692 0-145.201231-118.124308-263.325538-263.315692-263.325539z m0 491.529846c-125.833846 0-228.214154-102.370462-228.214154-228.204307 0-125.843692 102.370462-228.224 228.214154-228.224s228.214154 102.380308 228.214154 228.224c0 125.833846-102.370462 228.204308-228.214154 228.204307z m491.529846-245.395692H816.664615a17.555692 17.555692 0 0 0 0 35.111385h183.955693a17.555692 17.555692 0 0 0 0-35.111385zM219.081846 514.008615c0-9.698462-7.867077-17.555692-17.555692-17.555692H17.560615a17.555692 17.555692 0 0 0 0 35.111385h183.955693c9.688615 0 17.555692-7.867077 17.555692-17.555693z m290.018462 290.018462c-9.698462 0-17.555692 7.867077-17.555693 17.565538v183.955693a17.555692 17.555692 0 0 0 35.111385 0V821.592615c0-9.698462-7.867077-17.565538-17.555692-17.565538z m0-580.036923c9.688615 0 17.555692-7.867077 17.555692-17.555692V22.478769a17.555692 17.555692 0 0 0-35.111385 0v183.955693c0 9.688615 7.857231 17.555692 17.555693 17.555692z" fill="#F2F2F2" p-id="2477"></path></svg>