<svg class="icon" viewBox="0 0 1024 1024" xmlns="http://www.w3.org/2000/svg" width="16" height="16">
    <path d="M769.472 960H192.224C139.168 960 96 916.832 96 863.776V222.368c0-53.056 43.168-96.224 96.224-96.224h448.992c17.728 0 32.064 14.368 32.064 32.064 0 17.696-14.336 32.064-32.064 32.064H192.224c-17.664 0-32.064 14.4-32.064 32.064v641.408c0 17.696 14.4 32.064 32.064 32.064h577.28c17.696 0 32.064-14.368 32.064-32.064V350.656c0-17.696 14.336-32.064 32.064-32.064s32.064 14.368 32.064 32.064v513.12c0 53.056-43.168 96.224-96.224 96.224zM581.056 446.88c-8.224 0-16.416-3.136-22.656-9.408-12.544-12.544-12.544-32.8 0-45.344l318.72-318.72c12.544-12.544 32.8-12.544 45.344 0 12.544 12.544 12.544 32.8 0 45.344l-318.72 318.72c-6.24 6.272-14.464 9.408-22.688 9.408zm-132.288 0H256.352c-17.696 0-32.064-14.368-32.064-32.064 0-17.696 14.368-32.064 32.064-32.064h192.416c17.696 0 32.064 14.368 32.064 32.064 0 17.696-14.368 32.064-32.064 32.064zm192.448 192.416H256.352c-17.696 0-32.064-14.336-32.064-32.064s14.368-32.064 32.064-32.064h384.832c17.728 0 32.064 14.336 32.064 32.064.032 17.728-14.304 32.064-32.032 32.064zm0 0"
          fill="#ea9518"/>
</svg>